<svg
  width="167"
  height="16"
  viewBox="0 0 167 16"
  fill="none"
  xmlns="http://www.w3.org/2000/svg"
>
  <path
    d="M6.70164 0.559999C7.56831 0.559999 8.26831 0.693332 8.80164 0.96C9.33497 1.21333 9.83497 1.51333 10.3016 1.86C10.475 1.99333 10.6083 2.06 10.7016 2.06C10.955 2.06 11.1216 1.65333 11.2016 0.84H11.6616C11.635 1.33333 11.615 1.93333 11.6016 2.64C11.5883 3.34667 11.5816 4.28 11.5816 5.44H11.1216C11.0283 4.88 10.915 4.34 10.7816 3.82C10.6483 3.3 10.4283 2.85333 10.1216 2.48C9.73497 1.98667 9.22831 1.60667 8.60164 1.34C7.97497 1.06 7.32831 0.919999 6.66164 0.919999C5.99497 0.919999 5.38831 1.08667 4.84164 1.42C4.30831 1.74 3.84831 2.20667 3.46164 2.82C3.07497 3.43333 2.77497 4.17333 2.56164 5.04C2.36164 5.89333 2.26164 6.86 2.26164 7.94C2.26164 10.34 2.64831 12.1 3.42164 13.22C4.19497 14.3267 5.39497 14.88 7.02164 14.88C7.50164 14.88 7.91497 14.8133 8.26164 14.68C8.62164 14.5333 8.90164 14.3933 9.10164 14.26C9.35497 14.0867 9.51497 13.9267 9.58164 13.78C9.64831 13.62 9.68164 13.4133 9.68164 13.16V11.24C9.68164 10.6933 9.62831 10.2867 9.52164 10.02C9.41497 9.75333 9.21497 9.57333 8.92164 9.48C8.64164 9.38667 8.22164 9.33333 7.66164 9.32V8.92C7.90164 8.93333 8.18164 8.94667 8.50164 8.96C8.82164 8.96 9.15497 8.96667 9.50164 8.98C9.86164 8.98 10.1883 8.98 10.4816 8.98C10.9216 8.98 11.315 8.97333 11.6616 8.96C12.0216 8.94667 12.3216 8.93333 12.5616 8.92V9.32C12.2683 9.33333 12.0483 9.38 11.9016 9.46C11.755 9.54 11.655 9.7 11.6016 9.94C11.5616 10.18 11.5416 10.5467 11.5416 11.04V15H11.1416C11.1283 14.7733 11.075 14.5267 10.9816 14.26C10.9016 13.9933 10.775 13.86 10.6016 13.86C10.5216 13.86 10.4416 13.88 10.3616 13.92C10.2816 13.96 10.1416 14.0533 9.94164 14.2C9.50164 14.5333 9.03497 14.8 8.54164 15C8.04831 15.1867 7.47497 15.28 6.82164 15.28C5.44831 15.28 4.26831 15 3.28164 14.44C2.30831 13.8667 1.56164 13.0467 1.04164 11.98C0.521641 10.9133 0.261641 9.64 0.261641 8.16C0.261641 6.6 0.541641 5.25333 1.10164 4.12C1.66164 2.98667 2.42164 2.11333 3.38164 1.5C4.35497 0.873332 5.46164 0.559999 6.70164 0.559999ZM20.6641 0.559999C21.9308 0.559999 23.0375 0.846666 23.9841 1.42C24.9441 1.99333 25.6841 2.82 26.2041 3.9C26.7375 4.96667 27.0041 6.26667 27.0041 7.8C27.0041 9.29333 26.7308 10.6 26.1841 11.72C25.6508 12.84 24.9041 13.7133 23.9441 14.34C22.9841 14.9667 21.8841 15.28 20.6441 15.28C19.3775 15.28 18.2641 14.9933 17.3041 14.42C16.3575 13.8467 15.6175 13.02 15.0841 11.94C14.5641 10.86 14.3041 9.56 14.3041 8.04C14.3041 6.54667 14.5775 5.24 15.1241 4.12C15.6708 3 16.4175 2.12667 17.3641 1.5C18.3241 0.873332 19.4241 0.559999 20.6641 0.559999ZM20.5841 0.919999C19.7175 0.919999 18.9641 1.22 18.3241 1.82C17.6841 2.42 17.1841 3.24667 16.8241 4.3C16.4775 5.35333 16.3041 6.57333 16.3041 7.96C16.3041 9.37333 16.4975 10.6067 16.8841 11.66C17.2841 12.7 17.8175 13.5067 18.4841 14.08C19.1641 14.64 19.9108 14.92 20.7241 14.92C21.5908 14.92 22.3441 14.62 22.9841 14.02C23.6241 13.42 24.1175 12.5933 24.4641 11.54C24.8241 10.4733 25.0041 9.25333 25.0041 7.88C25.0041 6.45333 24.8041 5.22 24.4041 4.18C24.0175 3.14 23.4908 2.34 22.8241 1.78C22.1575 1.20667 21.4108 0.919999 20.5841 0.919999ZM41.3121 0.84V1.24C40.8588 1.25333 40.5121 1.32 40.2721 1.44C40.0454 1.56 39.8921 1.75333 39.8121 2.02C39.7321 2.28667 39.6921 2.66667 39.6921 3.16V15.1C39.6121 15.1 39.5321 15.1 39.4521 15.1C39.3854 15.1 39.3121 15.1 39.2321 15.1L30.8321 2.12V12.68C30.8321 13.16 30.8721 13.54 30.9521 13.82C31.0454 14.0867 31.2188 14.28 31.4721 14.4C31.7388 14.5067 32.1321 14.5733 32.6521 14.6V15C32.4121 14.9733 32.0988 14.96 31.7121 14.96C31.3254 14.9467 30.9588 14.94 30.6121 14.94C30.2788 14.94 29.9388 14.9467 29.5921 14.96C29.2588 14.96 28.9788 14.9733 28.7521 15V14.6C29.2054 14.5733 29.5454 14.5067 29.7721 14.4C30.0121 14.28 30.1721 14.0867 30.2521 13.82C30.3321 13.54 30.3721 13.16 30.3721 12.68V2.96C30.3721 2.46667 30.3321 2.10667 30.2521 1.88C30.1721 1.64 30.0121 1.48 29.7721 1.4C29.5454 1.30667 29.2054 1.25333 28.7521 1.24V0.84C28.9788 0.853333 29.2588 0.866666 29.5921 0.879999C29.9388 0.893333 30.2788 0.899999 30.6121 0.899999C30.9054 0.899999 31.1854 0.893333 31.4521 0.879999C31.7188 0.866666 31.9588 0.853333 32.1721 0.84L39.2321 11.72V3.16C39.2321 2.66667 39.1854 2.28667 39.0921 2.02C39.0121 1.75333 38.8388 1.56 38.5721 1.44C38.3188 1.32 37.9321 1.25333 37.4121 1.24V0.84C37.6521 0.853333 37.9654 0.866666 38.3521 0.879999C38.7521 0.893333 39.1188 0.899999 39.4521 0.899999C39.7988 0.899999 40.1388 0.893333 40.4721 0.879999C40.8188 0.866666 41.0988 0.853333 41.3121 0.84ZM48.3332 0.84C50.7199 0.84 52.4932 1.44 53.6532 2.64C54.8132 3.82667 55.3932 5.53333 55.3932 7.76C55.3932 9.21333 55.1065 10.4867 54.5332 11.58C53.9732 12.66 53.1532 13.5 52.0732 14.1C50.9932 14.7 49.6865 15 48.1532 15C47.9532 15 47.6865 14.9933 47.3532 14.98C47.0199 14.9667 46.6732 14.96 46.3132 14.96C45.9665 14.9467 45.6465 14.94 45.3532 14.94C44.8865 14.94 44.4265 14.9467 43.9732 14.96C43.5199 14.96 43.1532 14.9733 42.8732 15V14.6C43.3265 14.5733 43.6665 14.52 43.8932 14.44C44.1332 14.36 44.2932 14.2 44.3732 13.96C44.4532 13.72 44.4932 13.36 44.4932 12.88V2.96C44.4932 2.46667 44.4532 2.10667 44.3732 1.88C44.2932 1.64 44.1332 1.48 43.8932 1.4C43.6665 1.30667 43.3265 1.25333 42.8732 1.24V0.84C43.1532 0.853333 43.5199 0.873333 43.9732 0.899999C44.4265 0.913332 44.8732 0.913332 45.3132 0.899999C45.7799 0.886666 46.3065 0.873333 46.8932 0.86C47.4799 0.846666 47.9599 0.84 48.3332 0.84ZM47.8332 1.2C47.2199 1.2 46.8199 1.31333 46.6332 1.54C46.4465 1.76667 46.3532 2.22667 46.3532 2.92V12.92C46.3532 13.6133 46.4465 14.0733 46.6332 14.3C46.8332 14.5267 47.2399 14.64 47.8532 14.64C49.3065 14.64 50.4332 14.38 51.2332 13.86C52.0332 13.3267 52.5932 12.5533 52.9132 11.54C53.2332 10.5267 53.3932 9.29333 53.3932 7.84C53.3932 6.34667 53.2132 5.11333 52.8532 4.14C52.5065 3.15333 51.9265 2.42 51.1132 1.94C50.3132 1.44667 49.2199 1.2 47.8332 1.2ZM74.3724 0.84V1.24C74.1191 1.29333 73.8391 1.44667 73.5324 1.7C73.2258 1.94 72.9791 2.36667 72.7924 2.98L69.0124 15.1C68.9858 15.1 68.9591 15.1 68.9324 15.1C68.9058 15.1 68.8791 15.1 68.8524 15.1C68.8258 15.1 68.7991 15.1 68.7724 15.1C68.7458 15.1 68.7191 15.1 68.6924 15.1L64.4524 2.52C64.2791 2 64.0858 1.66 63.8724 1.5C63.6591 1.34 63.4591 1.25333 63.2724 1.24V0.84C63.5124 0.853333 63.8124 0.866666 64.1724 0.879999C64.5324 0.893333 64.8791 0.899999 65.2124 0.899999C65.7324 0.899999 66.2191 0.893333 66.6724 0.879999C67.1258 0.866666 67.4924 0.853333 67.7724 0.84V1.24C67.3724 1.25333 67.0524 1.29333 66.8124 1.36C66.5858 1.42667 66.4524 1.57333 66.4124 1.8C66.3858 2.02667 66.4524 2.4 66.6124 2.92L69.5924 12.14L69.3124 12.38L71.9524 4.08C72.1924 3.34667 72.2991 2.78 72.2724 2.38C72.2591 1.96667 72.1124 1.68 71.8324 1.52C71.5524 1.34667 71.1324 1.25333 70.5724 1.24V0.84C70.9591 0.853333 71.3524 0.866666 71.7524 0.879999C72.1524 0.893333 72.5258 0.899999 72.8724 0.899999C73.2191 0.899999 73.5058 0.893333 73.7324 0.879999C73.9591 0.866666 74.1724 0.853333 74.3724 0.84ZM60.3924 0.84V1.24C60.0458 1.26667 59.7924 1.33333 59.6324 1.44C59.4858 1.54667 59.4124 1.72 59.4124 1.96C59.4258 2.18667 59.4991 2.50667 59.6324 2.92L62.7324 12.38L62.2324 12.88L65.0324 3.94L65.3324 4.42L62.0324 15.1C62.0058 15.1 61.9791 15.1 61.9524 15.1C61.9258 15.1 61.8991 15.1 61.8724 15.1C61.8458 15.1 61.8191 15.1 61.7924 15.1C61.7658 15.1 61.7391 15.1 61.7124 15.1L57.4724 2.52C57.2991 2 57.0791 1.66 56.8124 1.5C56.5458 1.34 56.3058 1.25333 56.0924 1.24V0.84C56.3591 0.853333 56.6858 0.866666 57.0724 0.879999C57.4724 0.893333 57.8591 0.899999 58.2324 0.899999C58.6724 0.899999 59.0791 0.893333 59.4524 0.879999C59.8391 0.866666 60.1524 0.853333 60.3924 0.84ZM79.6651 0.739999L84.5451 13.32C84.7451 13.8267 84.9717 14.1667 85.2251 14.34C85.4784 14.5 85.7117 14.5867 85.9251 14.6V15C85.6584 14.9733 85.3317 14.96 84.9451 14.96C84.5584 14.9467 84.1717 14.94 83.7851 14.94C83.2651 14.94 82.7784 14.9467 82.3251 14.96C81.8717 14.96 81.5051 14.9733 81.2251 15V14.6C81.9051 14.5733 82.3384 14.46 82.5251 14.26C82.7117 14.0467 82.6717 13.6 82.4051 12.92L78.6851 2.98L79.0051 2.72L75.5251 11.76C75.3117 12.2933 75.1851 12.7467 75.1451 13.12C75.1051 13.48 75.1384 13.7667 75.2451 13.98C75.3651 14.1933 75.5584 14.3467 75.8251 14.44C76.1051 14.5333 76.4517 14.5867 76.8651 14.6V15C76.4917 14.9733 76.0984 14.96 75.6851 14.96C75.2851 14.9467 74.9117 14.94 74.5651 14.94C74.2317 14.94 73.9451 14.9467 73.7051 14.96C73.4784 14.96 73.2651 14.9733 73.0651 15V14.6C73.3317 14.5333 73.6051 14.38 73.8851 14.14C74.1651 13.8867 74.4184 13.46 74.6451 12.86L79.3451 0.739999C79.3984 0.739999 79.4517 0.739999 79.5051 0.739999C79.5584 0.739999 79.6117 0.739999 79.6651 0.739999ZM82.1051 9.24V9.64H76.1451L76.3451 9.24H82.1051ZM98.8121 0.84V1.24C98.3588 1.25333 98.0121 1.32 97.7721 1.44C97.5454 1.56 97.3921 1.75333 97.3121 2.02C97.2321 2.28667 97.1921 2.66667 97.1921 3.16V15.1C97.1121 15.1 97.0321 15.1 96.9521 15.1C96.8854 15.1 96.8121 15.1 96.7321 15.1L88.3321 2.12V12.68C88.3321 13.16 88.3721 13.54 88.4521 13.82C88.5454 14.0867 88.7188 14.28 88.9721 14.4C89.2388 14.5067 89.6321 14.5733 90.1521 14.6V15C89.9121 14.9733 89.5988 14.96 89.2121 14.96C88.8254 14.9467 88.4588 14.94 88.1121 14.94C87.7788 14.94 87.4388 14.9467 87.0921 14.96C86.7588 14.96 86.4788 14.9733 86.2521 15V14.6C86.7054 14.5733 87.0454 14.5067 87.2721 14.4C87.5121 14.28 87.6721 14.0867 87.7521 13.82C87.8321 13.54 87.8721 13.16 87.8721 12.68V2.96C87.8721 2.46667 87.8321 2.10667 87.7521 1.88C87.6721 1.64 87.5121 1.48 87.2721 1.4C87.0454 1.30667 86.7054 1.25333 86.2521 1.24V0.84C86.4788 0.853333 86.7588 0.866666 87.0921 0.879999C87.4388 0.893333 87.7788 0.899999 88.1121 0.899999C88.4054 0.899999 88.6854 0.893333 88.9521 0.879999C89.2188 0.866666 89.4588 0.853333 89.6721 0.84L96.7321 11.72V3.16C96.7321 2.66667 96.6854 2.28667 96.5921 2.02C96.5121 1.75333 96.3388 1.56 96.0721 1.44C95.8188 1.32 95.4321 1.25333 94.9121 1.24V0.84C95.1521 0.853333 95.4654 0.866666 95.8521 0.879999C96.2521 0.893333 96.6188 0.899999 96.9521 0.899999C97.2988 0.899999 97.6388 0.893333 97.9721 0.879999C98.3188 0.866666 98.5988 0.853333 98.8121 0.84ZM105.876 0.739999L110.756 13.32C110.956 13.8267 111.183 14.1667 111.436 14.34C111.689 14.5 111.923 14.5867 112.136 14.6V15C111.869 14.9733 111.543 14.96 111.156 14.96C110.769 14.9467 110.383 14.94 109.996 14.94C109.476 14.94 108.989 14.9467 108.536 14.96C108.083 14.96 107.716 14.9733 107.436 15V14.6C108.116 14.5733 108.549 14.46 108.736 14.26C108.923 14.0467 108.883 13.6 108.616 12.92L104.896 2.98L105.216 2.72L101.736 11.76C101.523 12.2933 101.396 12.7467 101.356 13.12C101.316 13.48 101.349 13.7667 101.456 13.98C101.576 14.1933 101.769 14.3467 102.036 14.44C102.316 14.5333 102.663 14.5867 103.076 14.6V15C102.703 14.9733 102.309 14.96 101.896 14.96C101.496 14.9467 101.123 14.94 100.776 14.94C100.443 14.94 100.156 14.9467 99.916 14.96C99.6893 14.96 99.476 14.9733 99.276 15V14.6C99.5427 14.5333 99.816 14.38 100.096 14.14C100.376 13.8867 100.629 13.46 100.856 12.86L105.556 0.739999C105.609 0.739999 105.663 0.739999 105.716 0.739999C105.769 0.739999 105.823 0.739999 105.876 0.739999ZM108.316 9.24V9.64H102.356L102.556 9.24H108.316ZM112.463 0.84C112.743 0.853333 113.11 0.866666 113.563 0.879999C114.016 0.893333 114.463 0.899999 114.903 0.899999C115.53 0.899999 116.13 0.893333 116.703 0.879999C117.276 0.866666 117.683 0.86 117.923 0.86C119.003 0.86 119.896 1.01333 120.603 1.32C121.323 1.62667 121.856 2.04667 122.203 2.58C122.563 3.1 122.743 3.68667 122.743 4.34C122.743 4.74 122.663 5.16667 122.503 5.62C122.343 6.07333 122.063 6.5 121.663 6.9C121.276 7.3 120.743 7.63333 120.063 7.9C119.383 8.15333 118.523 8.28 117.483 8.28H115.563V7.88H117.283C118.23 7.88 118.95 7.73333 119.443 7.44C119.95 7.13333 120.29 6.73333 120.463 6.24C120.65 5.73333 120.743 5.17333 120.743 4.56C120.743 3.50667 120.49 2.69333 119.983 2.12C119.49 1.53333 118.636 1.24 117.423 1.24C116.81 1.24 116.41 1.35333 116.223 1.58C116.036 1.80667 115.943 2.26667 115.943 2.96V12.88C115.943 13.36 115.983 13.72 116.063 13.96C116.143 14.2 116.296 14.36 116.523 14.44C116.763 14.52 117.11 14.5733 117.563 14.6V15C117.256 14.9733 116.87 14.96 116.403 14.96C115.95 14.9467 115.49 14.94 115.023 14.94C114.503 14.94 114.016 14.9467 113.563 14.96C113.11 14.96 112.743 14.9733 112.463 15V14.6C112.916 14.5733 113.256 14.52 113.483 14.44C113.723 14.36 113.883 14.2 113.963 13.96C114.043 13.72 114.083 13.36 114.083 12.88V2.96C114.083 2.46667 114.043 2.10667 113.963 1.88C113.883 1.64 113.723 1.48 113.483 1.4C113.256 1.30667 112.916 1.25333 112.463 1.24V0.84ZM115.643 7.94C116.363 7.96667 116.93 8 117.343 8.04C117.756 8.06667 118.09 8.09333 118.343 8.12C118.61 8.14667 118.863 8.18 119.103 8.22C119.996 8.36667 120.636 8.64 121.023 9.04C121.423 9.42667 121.716 10.0333 121.903 10.86L122.403 12.9C122.536 13.4867 122.67 13.9133 122.803 14.18C122.95 14.4333 123.17 14.5533 123.463 14.54C123.69 14.5267 123.876 14.4533 124.023 14.32C124.183 14.1867 124.35 14.0067 124.523 13.78L124.823 14C124.543 14.4133 124.25 14.7333 123.943 14.96C123.65 15.1733 123.23 15.28 122.683 15.28C122.19 15.28 121.756 15.1333 121.383 14.84C121.01 14.5467 120.73 13.9733 120.543 13.12L120.103 11.12C119.983 10.5467 119.843 10.0533 119.683 9.64C119.536 9.21333 119.323 8.88 119.043 8.64C118.776 8.4 118.376 8.28 117.843 8.28H115.683L115.643 7.94ZM131.052 0.739999L135.932 13.32C136.132 13.8267 136.358 14.1667 136.612 14.34C136.865 14.5 137.098 14.5867 137.312 14.6V15C137.045 14.9733 136.718 14.96 136.332 14.96C135.945 14.9467 135.558 14.94 135.172 14.94C134.652 14.94 134.165 14.9467 133.712 14.96C133.258 14.96 132.892 14.9733 132.612 15V14.6C133.292 14.5733 133.725 14.46 133.912 14.26C134.098 14.0467 134.058 13.6 133.792 12.92L130.072 2.98L130.392 2.72L126.912 11.76C126.698 12.2933 126.572 12.7467 126.532 13.12C126.492 13.48 126.525 13.7667 126.632 13.98C126.752 14.1933 126.945 14.3467 127.212 14.44C127.492 14.5333 127.838 14.5867 128.252 14.6V15C127.878 14.9733 127.485 14.96 127.072 14.96C126.672 14.9467 126.298 14.94 125.952 14.94C125.618 14.94 125.332 14.9467 125.092 14.96C124.865 14.96 124.652 14.9733 124.452 15V14.6C124.718 14.5333 124.992 14.38 125.272 14.14C125.552 13.8867 125.805 13.46 126.032 12.86L130.732 0.739999C130.785 0.739999 130.838 0.739999 130.892 0.739999C130.945 0.739999 130.998 0.739999 131.052 0.739999ZM133.492 9.24V9.64H127.532L127.732 9.24H133.492ZM153.379 0.84V1.24C152.925 1.25333 152.579 1.30667 152.339 1.4C152.112 1.48 151.959 1.64 151.879 1.88C151.799 2.10667 151.759 2.46667 151.759 2.96V12.88C151.759 13.36 151.799 13.72 151.879 13.96C151.959 14.2 152.112 14.36 152.339 14.44C152.579 14.52 152.925 14.5733 153.379 14.6V15C153.072 14.9733 152.685 14.96 152.219 14.96C151.765 14.9467 151.305 14.94 150.839 14.94C150.319 14.94 149.832 14.9467 149.379 14.96C148.925 14.96 148.559 14.9733 148.279 15V14.6C148.732 14.5733 149.072 14.52 149.299 14.44C149.539 14.36 149.699 14.2 149.779 13.96C149.859 13.72 149.899 13.36 149.899 12.88V1.88L149.979 1.94L145.079 15.1H144.759L139.719 2.12V12.68C139.719 13.16 139.759 13.54 139.839 13.82C139.932 14.0867 140.105 14.28 140.359 14.4C140.625 14.5067 141.019 14.5733 141.539 14.6V15C141.299 14.9733 140.985 14.96 140.599 14.96C140.212 14.9467 139.845 14.94 139.499 14.94C139.165 14.94 138.825 14.9467 138.479 14.96C138.145 14.96 137.865 14.9733 137.639 15V14.6C138.092 14.5733 138.432 14.5067 138.659 14.4C138.899 14.28 139.059 14.0867 139.139 13.82C139.219 13.54 139.259 13.16 139.259 12.68V2.96C139.259 2.46667 139.219 2.10667 139.139 1.88C139.059 1.64 138.899 1.48 138.659 1.4C138.432 1.30667 138.092 1.25333 137.639 1.24V0.84C137.865 0.853333 138.145 0.866666 138.479 0.879999C138.825 0.893333 139.165 0.899999 139.499 0.899999C139.792 0.899999 140.092 0.893333 140.399 0.879999C140.719 0.866666 140.985 0.853333 141.199 0.84L145.739 12.8L145.399 12.96L149.899 0.899999C150.059 0.899999 150.212 0.899999 150.359 0.899999C150.519 0.899999 150.679 0.899999 150.839 0.899999C151.305 0.899999 151.765 0.893333 152.219 0.879999C152.685 0.866666 153.072 0.853333 153.379 0.84ZM160.681 0.739999L165.561 13.32C165.761 13.8267 165.987 14.1667 166.241 14.34C166.494 14.5 166.727 14.5867 166.941 14.6V15C166.674 14.9733 166.347 14.96 165.961 14.96C165.574 14.9467 165.187 14.94 164.801 14.94C164.281 14.94 163.794 14.9467 163.341 14.96C162.887 14.96 162.521 14.9733 162.241 15V14.6C162.921 14.5733 163.354 14.46 163.541 14.26C163.727 14.0467 163.687 13.6 163.421 12.92L159.701 2.98L160.021 2.72L156.541 11.76C156.327 12.2933 156.201 12.7467 156.161 13.12C156.121 13.48 156.154 13.7667 156.261 13.98C156.381 14.1933 156.574 14.3467 156.841 14.44C157.121 14.5333 157.467 14.5867 157.881 14.6V15C157.507 14.9733 157.114 14.96 156.701 14.96C156.301 14.9467 155.927 14.94 155.581 14.94C155.247 14.94 154.961 14.9467 154.721 14.96C154.494 14.96 154.281 14.9733 154.081 15V14.6C154.347 14.5333 154.621 14.38 154.901 14.14C155.181 13.8867 155.434 13.46 155.661 12.86L160.361 0.739999C160.414 0.739999 160.467 0.739999 160.521 0.739999C160.574 0.739999 160.627 0.739999 160.681 0.739999ZM163.121 9.24V9.64H157.161L157.361 9.24H163.121Z"
    fill="black"
  />
</svg>
