<!-- https://looka.com/editor/66967273 -->
<svg xmlns="http://www.w3.org/2000/svg" width="160" height="17.819" xmlns:v="https://vecta.io/nano"><path d="M1.561 16.811c-.632.216-1.141.154-1.404-.216-.278-.386-.185-.987.247-1.465.293-.339.663-.571 1.064-.756a18.24 18.24 0 0 1 2.406-.972c.293-.093.555-.216.694-.54l1.897-4.026c.062-.123.031-.185-.015-.231-.062-.077-1.111 1.126-1.604 1.527-.416.339-.817.71-1.311.925-.663.262-1.357.432-1.959-.062-.586-.478-.694-1.188-.602-1.897.139-1.111.432-2.206.956-3.208.231-.463-.201-.524-1.404-.972-.108-.046-.231-.077-.201-.201.046-.108.17-.062.262-.031 1.141.432 1.573.679 2.098-.062C4.353 2.359 8.533-.448 9.782 1.109c.339.401.278.864.093 1.296-.278.694-.833 1.172-1.434 1.573C6.898 5.027 5.201 5.598 3.32 5.49c-.632-.031-.972.185-1.203.771-.416 1.064-.817 2.144-.787 3.316.046 1.188.71 1.681 1.835 1.326.524-.17.956-.478 1.357-.848l2.082-2.175c.108-.154.247-.401.478-.278.231.108.123.339.031.54-1.064 2.452-2.082 4.936-3.671 7.141-.478.679-1.08 1.234-1.882 1.527zM2.872 5.12c.17.247 1.434.17 2.36-.031 1.512-.339 2.9-.941 3.949-2.129.555-.632.71-1.203.416-1.589-1.018-1.265-4.488.972-6.231 2.946-.216.247-.602.524-.494.802zM1.546 16.549c1.049-.231 2.668-2.591 2.437-2.853-.201-.062-.447.093-.571.139-.941.37-1.928.648-2.699 1.373-.355.324-.648.725-.339 1.203.308.355.71.293 1.172.139zm10.292-3.378c-1.913-.231-2.591-1.882-2.391-3.347.355-2.776 1.882-4.859 4.195-6.386.401-.262.833-.386 1.296-.447.37-.062.787.093.756.293 0 .077-.139.093-.201.077-.864-.185-1.558.201-2.175.679-1.681 1.326-2.915 2.946-3.424 5.059-.154.663-.201 1.357-.015 1.99.509 1.743 1.758 2.021 3.347 1.666 1.419-.308 2.545-1.188 3.548-2.206 1.496-1.512 2.622-3.239 3.039-5.398.355-1.866-.771-3.81-2.607-4.303-1.141-.308-2.082.231-2.992.848-.108.093-.231.247-.308.17-.17-.17 0-.293.123-.386.663-.524 1.373-.864 2.221-.987 2.098-.308 3.871 1.758 3.918 3.733-.077 2.206-.972 3.841-2.129 5.321-1.018 1.311-2.236 2.406-3.748 3.131-.771.386-1.604.602-2.452.494zm14.873 2.236c-.262.015-.293-.432-.247-.694.478-2.946.987-5.892 2.252-8.637.416-.879.756-1.789 1.095-2.699.062-.154.247-.401.015-.555-.17-.108-.339.077-.478.17-1.357.817-2.468 1.928-3.486 3.116-1.357 1.542-2.483 3.254-3.424 5.074-.077.154-.154.416-.355.324-.216-.108-.015-.308.046-.463l2.884-6.848c.17-.416.632-.987.247-1.311-.247-.201-.756.401-1.126.663-.555.386-1.018.864-1.45 1.373-.231.262-.771.571-.185 1.033.046.046 0 .154-.077.17-.062.031-.17.031-.216-.015-.339-.262-.293-.586-.093-.879.771-1.126 1.789-1.974 2.931-2.684.17-.108.386-.154.586 0 .216.17.17.401.108.632-.262.972-.756 1.851-1.111 2.776-.308.802-.802 1.527-.987 2.391-.015.046.031.077.062.031l1.851-2.329c.987-1.188 2.067-2.283 3.347-3.162l.463-.278c.262-.139.555-.231.787 0 .201.201.139.478.046.725a26.11 26.11 0 0 1-1.203 2.977c-1.249 2.699-1.774 5.568-2.252 8.468v.077c-.123.201.278.54-.031.555zm5.371-2.684c-1.172-.154-1.743-1.126-1.357-2.329.386-1.218 1.172-2.082 2.375-2.53.478-.185.725-.463.895-.925l1.157-2.745c.062-.123.108-.37.278-.293.17.062.046.247-.015.386L34.38 6.755c-.077.231-.648.71.17.817.108.015.062.216-.123.201-.509-.031-.586.308-.71.648l-.972 2.499c-.031.093-.015.247-.154.216-.17-.046-.123-.216-.077-.324l.91-2.437c.046-.108.185-.231.046-.339-.108-.093-.231.046-.339.093-1.28.524-2.252 1.866-2.252 3.039.015.586.308.941.833 1.157.725.293 1.481.201 2.175-.062 3.008-1.095 4.967-3.224 5.799-6.278.586-2.144-1.234-3.887-3.44-3.47-1.928.355-3.424 1.28-4.288 3.1-.031.062-.031.17-.139.139-.108-.046-.123-.17-.077-.262.216-.54.524-1.049.956-1.45 1.172-1.141 2.53-1.913 4.226-1.897 2.113.015 3.671 1.866 3.085 3.856-.972 3.316-3.008 5.568-6.324 6.632-.324.108-.648.093-.833.093-.355 0-.571.031-.771 0zm15.69-.262c-.802.308-1.373-.046-1.434-.91-.015-.231 0-.463 0-.632-.031-.972.231-1.82.494-2.668.108-.416.093-.571-.262-.139l-2.021 2.514c-.278.308-.555.602-.941.771-.463.185-.802.046-.848-.478-.123-1.049 1.018-4.396 1.974-6.617l.463-1.126c.093-.278-.046-.401-.293-.247-1.326.864-3.455 2.545-2.699 3.594.139.123.077.231-.077.185-.154-.062-.262-.231-.324-.447-.308-1.033 1.542-2.622 2.884-3.486.201-.139.509-.293.756-.154.216.123.108.494 0 .787l-.787 1.913c-.694 1.65-2.591 6.833-.925 5.691.802-.555 1.311-1.373 1.897-2.098l1.265-1.65c.093-.123.216-.278.37-.201.185.077.139.278.108.416l-.355 1.249c-.278.879-.463 1.774-.416 2.699.046.817.509 1.08 1.234.725C50.795 10.703 55.7 1.711 53.37.23c-.031-.031-.077-.077-.046-.139.046-.077.123-.108.201-.062 2.73 1.527-2.607 11.105-5.753 12.432zm17.973.694c-.139 0-.154-.108-.154-.216-.062-.648.046-1.28.231-1.897.278-.956.663-1.866 1.033-2.792.062-.154.185-.293.062-.416-.123-.139-.278.015-.416.046-1.064.308-1.974.941-2.977 1.373-.37.17-.725.401-1.111.509-1.218.324-2.19 1.049-3.146 1.835-.71.555-1.465 1.033-2.344 1.265-1.789.463-2.668-.201-2.9-2.005-.031-.139-.015-.262-.015-.386-.015-2.113 2.005-4.997 4.72-5.46.864-.154 1.851.37 2.129 1.064.046.093.077.231 0 .278-.17.093-.17-.093-.231-.185-.586-.802-1.203-.987-2.19-.771-1.897.416-3.887 2.499-4.134 4.936a2.92 2.92 0 0 0 .355 1.635c.355.679 1.018.941 1.928.71 1.234-.324 2.252-1.049 3.224-1.851.077-.062.185-.154.123-.247-.046-.062-.185-.077-.278-.077-.447.015-.864-.031-1.249-.278-.108-.062-.278-.123-.216-.262.077-.185.216-.031.308 0 1.095.494 2.005.324 2.915-.54 1.959-1.835 3.717-3.825 5.583-5.753a38.22 38.22 0 0 1 2.56-2.437c.093-.077.201-.17.308-.231.139-.108.308-.247.494-.139.201.139.123.37.077.571-.031.185-.154.37-.231.555-.71 1.558-1.604 3.023-2.267 4.612-.216.509-.231.694.37.571.108-.031.216-.015.308 0 .231.062.663.031.632.247-.046.278-.386.062-.602.046-.817-.077-1.126.108-1.45.879-.509 1.188-1.033 2.391-1.28 3.671-.046.308-.046.617-.062.925 0 .077.046.216-.108.216zm-3.979-3.409l.895-.37c1.45-.632 2.761-1.558 4.319-1.928.278-.077.37-.324.463-.571.602-1.404 1.296-2.776 2.021-4.118l.54-1.111c.046-.093.046-.201-.046-.262-.046-.015-.154.031-.216.077-.139.108-.262.231-.401.355-1.111.987-2.144 2.051-3.162 3.131-1.434 1.496-2.792 3.069-4.365 4.442-.093.093-.201.17-.201.308zm13.7 5.661c-.262.015-.293-.432-.247-.694.478-2.946.987-5.892 2.252-8.637.416-.879.756-1.789 1.095-2.699.062-.154.247-.401.015-.555-.17-.108-.339.077-.478.17-1.357.817-2.468 1.928-3.486 3.116-1.357 1.542-2.483 3.254-3.424 5.074-.077.154-.154.416-.355.324-.216-.108-.015-.308.046-.463.864-2.314 1.928-4.565 2.884-6.848.17-.416.632-.987.247-1.311-.247-.201-.756.401-1.126.663-.555.386-1.018.864-1.45 1.373-.231.262-.771.571-.185 1.033.046.046 0 .154-.077.17-.062.031-.17.031-.216-.015-.339-.262-.293-.586-.093-.879.771-1.126 1.789-1.974 2.931-2.684.17-.108.386-.154.586 0 .216.17.17.401.108.632-.262.972-.756 1.851-1.111 2.776-.308.802-.802 1.527-.987 2.391-.015.046.031.077.062.031l1.851-2.329c.987-1.188 2.067-2.283 3.347-3.162l.463-.278c.262-.139.555-.231.787 0 .201.201.139.478.046.725a26.11 26.11 0 0 1-1.203 2.977c-1.249 2.699-1.774 5.568-2.252 8.468v.077c-.123.201.278.54-.031.555zm16.06-2.252c-.139 0-.154-.108-.154-.216-.062-.648.046-1.28.231-1.897.278-.956.663-1.866 1.033-2.792.062-.154.185-.293.062-.416-.123-.139-.278.015-.416.046-1.064.308-1.974.941-2.977 1.373-.37.17-.725.401-1.111.509-1.218.324-2.19 1.049-3.146 1.835-.71.555-1.465 1.033-2.344 1.265-1.789.463-2.668-.201-2.9-2.005-.031-.139-.015-.262-.015-.386-.015-2.113 2.005-4.997 4.72-5.46.864-.154 1.851.37 2.129 1.064.046.093.077.231 0 .278-.17.093-.17-.093-.231-.185-.586-.802-1.203-.987-2.19-.771-1.897.416-3.887 2.499-4.134 4.936a2.92 2.92 0 0 0 .355 1.635c.355.679 1.018.941 1.928.71 1.234-.324 2.252-1.049 3.224-1.851.077-.062.185-.154.123-.247-.046-.062-.185-.077-.278-.077-.447.015-.864-.031-1.249-.278-.108-.062-.278-.123-.216-.262.077-.185.216-.031.308 0 1.095.494 2.005.324 2.915-.54 1.959-1.835 3.717-3.825 5.583-5.753a38.22 38.22 0 0 1 2.56-2.437c.093-.077.201-.17.308-.231.139-.108.308-.247.494-.139.201.139.123.37.077.571-.031.185-.154.37-.231.555-.71 1.558-1.604 3.023-2.267 4.612-.216.509-.231.694.37.571.108-.031.216-.015.308 0 .231.062.663.031.632.247-.046.278-.386.062-.602.046-.817-.077-1.126.108-1.45.879-.509 1.188-1.033 2.391-1.28 3.671-.046.308-.046.617-.062.925 0 .077.046.216-.108.216zm-3.979-3.409l.895-.37c1.45-.632 2.761-1.558 4.319-1.928.278-.077.37-.324.463-.571.602-1.404 1.296-2.776 2.021-4.118l.54-1.111c.046-.093.046-.201-.046-.262-.046-.015-.154.031-.216.077-.139.108-.262.231-.401.355-1.111.987-2.144 2.051-3.162 3.131-1.434 1.496-2.792 3.069-4.365 4.442-.093.093-.201.17-.201.308zm8.564 8.067c-.123-.046-.093-.139-.062-.247.139-.386.262-.771.416-1.141l2.514-6c.123-.308.278-.571.123-.941-.154-.355.093-.648.401-.833.278-.17.416-.416.54-.71.756-1.727 1.604-3.409 2.159-5.229 0-.031.015-.046.031-.077.093-.123.077-.432.293-.355.154.062.015.324-.031.494-.324 1.064-.787 2.098-1.218 3.131l-.771 1.758c-.046.093-.123.185-.031.278s.185-.015.262-.062c2.159-1.249 4.272-2.56 5.769-4.627.339-.447.617-.941.602-1.419.015-.787-.37-1.203-1.08-1.404-.802-.231-1.573-.123-2.344.093-1.28.355-2.422 1.003-3.409 1.851-1.866 1.62-3.455 3.44-4.026 5.938-.015.093.077.308-.123.278-.139-.015-.108-.185-.093-.308.262-1.45.925-2.715 1.82-3.841 1.512-1.866 3.254-3.424 5.599-4.164.91-.278 1.835-.401 2.776-.108 1.018.324 1.45 1.126 1.111 2.144-.231.725-.694 1.311-1.188 1.866-1.512 1.697-3.378 2.884-5.337 3.995-.416.231-.802.494-1.003.987-.185.432-.185.663.247.941 1.789 1.064 3.609 2.021 5.691 2.391.093.015.293-.062.278.123 0 .17-.185.139-.308.123-.71-.108-1.404-.262-2.067-.524-1.265-.509-2.483-1.08-3.64-1.805-.571-.355-.571-.355-.833.278l-2.792 6.709c-.031.093-.077.185-.123.278-.031.062-.046.17-.154.139zm3.316-8.56l.015-.046h-.031zm18.513 3.902c-.139 0-.154-.108-.154-.216-.062-.648.046-1.28.231-1.897.278-.956.663-1.866 1.033-2.792.062-.154.185-.293.062-.416-.123-.139-.278.015-.416.046-1.064.308-1.974.941-2.977 1.373-.37.17-.725.401-1.111.509-1.218.324-2.19 1.049-3.146 1.835-.71.555-1.465 1.033-2.344 1.265-1.789.463-2.668-.201-2.9-2.005-.031-.139-.015-.262-.015-.386-.015-2.113 2.005-4.997 4.72-5.46.864-.154 1.851.37 2.129 1.064.046.093.077.231 0 .278-.17.093-.17-.093-.231-.185-.586-.802-1.203-.987-2.19-.771-1.897.416-3.887 2.499-4.134 4.936a2.92 2.92 0 0 0 .355 1.635c.355.679 1.018.941 1.928.71 1.234-.324 2.252-1.049 3.224-1.851.077-.062.185-.154.123-.247-.046-.062-.185-.077-.278-.077-.447.015-.864-.031-1.249-.278-.108-.062-.278-.123-.216-.262.077-.185.216-.031.308 0 1.095.494 2.005.324 2.915-.54 1.959-1.835 3.717-3.825 5.583-5.753a38.22 38.22 0 0 1 2.56-2.437c.093-.077.201-.17.308-.231.139-.108.308-.247.494-.139.201.139.123.37.077.571-.031.185-.154.37-.231.555-.71 1.558-1.604 3.023-2.267 4.612-.216.509-.231.694.37.571.108-.031.216-.015.308 0 .231.062.663.031.632.247-.046.278-.386.062-.602.046-.817-.077-1.126.108-1.45.879-.509 1.188-1.033 2.391-1.28 3.671-.046.308-.046.617-.062.925 0 .077.046.216-.108.216zm-3.979-3.409l.895-.37c1.45-.632 2.761-1.558 4.319-1.928.278-.077.37-.324.463-.571.602-1.404 1.296-2.776 2.021-4.118l.54-1.111c.046-.093.046-.201-.046-.262-.046-.015-.154.031-.216.077-.139.108-.262.231-.401.355-1.111.987-2.144 2.051-3.162 3.131-1.434 1.496-2.792 3.069-4.365 4.442-.093.093-.201.17-.201.308zm24.929 2.9c-1.064.262-1.743-.386-1.512-1.481.17-.833.524-1.604.925-2.329l1.897-3.44c.17-.308.324-.632.355-1.003.062-.694-.108-.848-.771-.663-.725.185-1.388.524-2.021.91-1.866 1.157-3.47 2.637-4.982 4.211-.262.262-.571.833-.848.632-.324-.247.139-.694.293-1.033.416-.941.864-1.866 1.296-2.792.093-.185.201-.37.216-.571.015-.278.37-.617.015-.848-.247-.154-.509.108-.74.247-1.111.663-2.082 1.512-3.023 2.391-1.496 1.404-2.853 2.961-4.149 4.55a7.84 7.84 0 0 1-.586.663c-.201.201-.339.602-.648.401-.278-.17.108-.648.247-.956l2.637-5.784c.201-.447.37-.895.524-1.357.062-.216.139-.478-.062-.663-.185-.17-.447-.093-.648 0-.339.154-.694.339-1.003.54-.91.571-1.604 1.373-2.206 2.236-.817 1.172-.925 2.344 0 3.517.077.093.262.216.154.308-.17.139-.247-.077-.339-.185-.71-.879-.956-1.866-.478-2.931.771-1.681 2.005-2.961 3.717-3.717 1.126-.509 1.265.062 1.157.879-.093.694-.416 1.311-.694 1.943l-2.021 4.38c-.123.278-.308.509-.324.817.54-.293.833-.848 1.234-1.296 1.666-1.959 3.409-3.841 5.46-5.398.432-.324.864-.648 1.357-.864.602-.247.895-.062.848.602-.046.756-.432 1.404-.71 2.082-.262.602-.648 1.157-.817 1.805-.015.031 0 .093.046.046 1.296-1.203 2.53-2.483 3.995-3.47.879-.586 1.727-1.203 2.761-1.512a2.65 2.65 0 0 1 .586-.123c.74-.015 1.049.355.879 1.049-.17.679-.494 1.296-.833 1.897l-1.805 3.224c-.308.586-.555 1.203-.617 1.866-.077.802.432 1.218 1.188.987.679-.201 1.234-.632 1.727-1.111.848-.787 1.604-1.666 2.314-2.576.077-.093.185-.262.293-.201.201.154-.015.262-.108.37-.925 1.049-1.758 2.206-2.9 3.054-.386.293-.787.571-1.28.694zm16.369.509c-.139 0-.154-.108-.154-.216-.062-.648.046-1.28.231-1.897.278-.956.663-1.866 1.033-2.792.062-.154.185-.293.062-.416-.123-.139-.278.015-.416.046-1.064.308-1.974.941-2.977 1.373-.37.17-.725.401-1.111.509-1.218.324-2.19 1.049-3.146 1.835-.71.555-1.465 1.033-2.344 1.265-1.789.463-2.668-.201-2.9-2.005-.031-.139-.015-.262-.015-.386-.015-2.113 2.005-4.997 4.72-5.46.864-.154 1.851.37 2.129 1.064.046.093.077.231 0 .278-.17.093-.17-.093-.231-.185-.586-.802-1.203-.987-2.19-.771-1.897.416-3.887 2.499-4.134 4.936a2.92 2.92 0 0 0 .355 1.635c.355.679 1.018.941 1.928.71 1.234-.324 2.252-1.049 3.224-1.851.077-.062.185-.154.123-.247-.046-.062-.185-.077-.278-.077-.447.015-.864-.031-1.249-.278-.108-.062-.278-.123-.216-.262.077-.185.216-.031.308 0 1.095.494 2.005.324 2.915-.54 1.959-1.835 3.717-3.825 5.583-5.753a38.22 38.22 0 0 1 2.56-2.437c.093-.077.201-.17.308-.231.139-.108.308-.247.494-.139.201.139.123.37.077.571-.031.185-.154.37-.231.555-.71 1.558-1.604 3.023-2.267 4.612-.216.509-.231.694.37.571.108-.031.216-.015.308 0 .231.062.663.031.632.247-.046.278-.386.062-.602.046-.817-.077-1.126.108-1.45.879-.509 1.188-1.033 2.391-1.28 3.671-.046.308-.046.617-.062.925 0 .077.046.216-.108.216zm-3.979-3.409l.895-.37c1.45-.632 2.761-1.558 4.319-1.928.278-.077.37-.324.463-.571.602-1.404 1.296-2.776 2.021-4.118l.54-1.111c.046-.093.046-.201-.046-.262-.046-.015-.154.031-.216.077-.139.108-.262.231-.401.355-1.111.987-2.144 2.051-3.162 3.131-1.434 1.496-2.792 3.069-4.365 4.442-.093.093-.201.17-.201.308z" fill="#111"/></svg>
